HIERARCHY
ROOT Hips
{
	OFFSET 0.000000 71.427986 0.000000
	CHANNELS 6 Xposition Yposition Zposition Xrotation Yrotation Zrotation
	JOINT Pelvis
	{
		OFFSET 0.000000 0.000000 0.000000
		CHANNELS 3 Xrotation Yrotation Zrotation
		JOINT LeftUpLeg
		{
			OFFSET 6.797100 -2.508499 -1.318700
			CHANNELS 3 Xrotation Yrotation Zrotation
			JOINT LeftLeg
			{
				OFFSET 0.069008 -29.241863 0.690200
				CHANNELS 3 Xrotation Yrotation Zrotation
				JOINT LeftFoot
				{
					OFFSET -0.069008 -29.568123 -0.266800
					CHANNELS 3 Xrotation Yrotation Zrotation
					JOINT LeftToeBase
					{
						OFFSET 3.145500 -8.631000 16.059900
						CHANNELS 3 Xrotation Yrotation Zrotation
						End Site
						{
							OFFSET 0.000000 18.501587 0.000000
						}
					}
				}
			}
			JOINT Left_ShortSleeve
			{
				OFFSET 0.265923 -10.480953 1.153800
				CHANNELS 3 Xrotation Yrotation Zrotation
				End Site
				{
					OFFSET 1.725763 19.823879 0.000000
				}
			}
		}
		JOINT RightUpLeg
		{
			OFFSET -6.797100 -2.508499 -1.318700
			CHANNELS 3 Xrotation Yrotation Zrotation
			JOINT RightLeg
			{
				OFFSET -0.082453 -29.241932 0.688000
				CHANNELS 3 Xrotation Yrotation Zrotation
				JOINT RightFoot
				{
					OFFSET 0.082453 -29.568058 -0.264600
					CHANNELS 3 Xrotation Yrotation Zrotation
					JOINT RightToeBase
					{
						OFFSET -3.115300 -8.682800 16.113400
						CHANNELS 3 Xrotation Yrotation Zrotation
						End Site
						{
							OFFSET 0.000000 18.567114 0.000000
						}
					}
				}
			}
			JOINT Right_ShortSleeve
			{
				OFFSET -0.265923 -10.480953 1.153800
				CHANNELS 3 Xrotation Yrotation Zrotation
				End Site
				{
					OFFSET -1.725766 19.823910 0.000000
				}
			}
		}
	}
	JOINT Spine
	{
		OFFSET 0.000000 13.368103 0.470500
		CHANNELS 3 Xrotation Yrotation Zrotation
		JOINT Spine1
		{
			OFFSET 0.147000 13.837402 0.538800
			CHANNELS 3 Xrotation Yrotation Zrotation
			JOINT Spine2
			{
				OFFSET 0.168000 16.242897 -1.435500
				CHANNELS 3 Xrotation Yrotation Zrotation
				JOINT Neck
				{
					OFFSET 0.217200 18.631500 -1.679100
					CHANNELS 3 Xrotation Yrotation Zrotation
					JOINT Head
					{
						OFFSET 0.000000 6.599396 1.385900
						CHANNELS 3 Xrotation Yrotation Zrotation
						JOINT Hat
						{
							OFFSET -0.532200 27.220596 -10.096100
							CHANNELS 3 Xrotation Yrotation Zrotation
							End Site
							{
								OFFSET 0.000000 22.029861 0.000000
							}
						}
						JOINT HairD
						{
							OFFSET -10.777400 17.437393 -1.325900
							CHANNELS 3 Xrotation Yrotation Zrotation
							JOINT HairD1
							{
								OFFSET -3.290299 -11.051193 1.062200
								CHANNELS 3 Xrotation Yrotation Zrotation
								End Site
								{
									OFFSET 0.000000 11.579437 0.000000
								}
							}
						}
						JOINT HairB
						{
							OFFSET -10.777400 17.437393 1.467900
							CHANNELS 3 Xrotation Yrotation Zrotation
							JOINT HairB1
							{
								OFFSET -1.561200 -12.956299 3.590200
								CHANNELS 3 Xrotation Yrotation Zrotation
								End Site
								{
									OFFSET 0.000000 13.534866 0.000000
								}
							}
						}
						JOINT HairA
						{
							OFFSET 9.713100 17.437393 1.467900
							CHANNELS 3 Xrotation Yrotation Zrotation
							JOINT HairA1
							{
								OFFSET 1.561200 -12.956299 3.590200
								CHANNELS 3 Xrotation Yrotation Zrotation
								End Site
								{
									OFFSET 0.000000 13.534866 0.000000
								}
							}
						}
						JOINT HairC
						{
							OFFSET 9.713100 17.437393 -1.325900
							CHANNELS 3 Xrotation Yrotation Zrotation
							JOINT HairC1
							{
								OFFSET 3.290300 -11.051193 1.062200
								CHANNELS 3 Xrotation Yrotation Zrotation
								End Site
								{
									OFFSET 0.000000 11.579437 0.000000
								}
							}
						}
					}
				}
				JOINT LeftShoulder
				{
					OFFSET 5.101800 15.108002 -2.763700
					CHANNELS 3 Xrotation Yrotation Zrotation
					JOINT LeftArm
					{
						OFFSET 9.825497 2.506317 -1.597400
						CHANNELS 3 Xrotation Yrotation Zrotation
						JOINT LeftForeArm
						{
							OFFSET 21.966244 0.000000 0.000000
							CHANNELS 3 Xrotation Yrotation Zrotation
							JOINT LeftHand
							{
								OFFSET 33.879036 0.000000 0.000000
								CHANNELS 3 Xrotation Yrotation Zrotation
								JOINT LeftHandThumb1
								{
									OFFSET 6.715286 -2.359680 3.363841
									CHANNELS 3 Xrotation Yrotation Zrotation
									JOINT LeftHandThumb2
									{
										OFFSET 2.507072 -1.447464 1.447461
										CHANNELS 3 Xrotation Yrotation Zrotation
										JOINT LeftHandThumb3
										{
											OFFSET 2.898338 -1.673355 1.673357
											CHANNELS 3 Xrotation Yrotation Zrotation
											End Site
											{
												OFFSET -0.295959 3.727692 -0.131651
											}
										}
									}
								}
								JOINT LeftHandIndex1
								{
									OFFSET 14.190811 -0.254547 3.840278
									CHANNELS 3 Xrotation Yrotation Zrotation
									JOINT LeftHandIndex2
									{
										OFFSET 3.551727 0.000000 -0.000000
										CHANNELS 3 Xrotation Yrotation Zrotation
										JOINT LeftHandIndex3
										{
											OFFSET 2.894196 0.000000 0.000000
											CHANNELS 3 Xrotation Yrotation Zrotation
											End Site
											{
												OFFSET -1.000603 2.690872 0.366626
											}
										}
									}
								}
								JOINT LeftHandMiddle1
								{
									OFFSET 13.776489 0.000000 0.000000
									CHANNELS 3 Xrotation Yrotation Zrotation
									JOINT LeftHandMiddle2
									{
										OFFSET 3.438232 0.000000 0.000000
										CHANNELS 3 Xrotation Yrotation Zrotation
										JOINT LeftHandMiddle3
										{
											OFFSET 3.691551 0.000000 0.000000
											CHANNELS 3 Xrotation Yrotation Zrotation
											End Site
											{
												OFFSET -1.082298 3.499527 0.457670
											}
										}
									}
								}
								JOINT LeftHandRing1
								{
									OFFSET 13.966164 -0.268127 -3.067488
									CHANNELS 3 Xrotation Yrotation Zrotation
									JOINT LeftHandRing2
									{
										OFFSET 3.162567 0.000000 0.000000
										CHANNELS 3 Xrotation Yrotation Zrotation
										JOINT LeftHandRing3
										{
											OFFSET 3.324348 0.000000 0.000000
											CHANNELS 3 Xrotation Yrotation Zrotation
											End Site
											{
												OFFSET -0.861900 3.184998 0.405154
											}
										}
									}
								}
								JOINT LeftHandPinky1
								{
									OFFSET 13.131393 -0.168503 -5.746925
									CHANNELS 3 Xrotation Yrotation Zrotation
									JOINT LeftHandPinky2
									{
										OFFSET 2.849182 0.000000 0.000000
										CHANNELS 3 Xrotation Yrotation Zrotation
										JOINT LeftHandPinky3
										{
											OFFSET 2.805038 0.000000 0.000000
											CHANNELS 3 Xrotation Yrotation Zrotation
											End Site
											{
												OFFSET -0.882500 2.642609 0.325652
											}
										}
									}
								}
							}
							JOINT Left_Sleeve
							{
								OFFSET 6.592125 -0.646545 0.805568
								CHANNELS 3 Xrotation Yrotation Zrotation
								End Site
								{
									OFFSET -0.000179 20.275787 -0.000000
								}
							}
						}
					}
				}
				JOINT RightShoulder
				{
					OFFSET -5.731700 15.108002 -2.763700
					CHANNELS 3 Xrotation Yrotation Zrotation
					JOINT RightArm
					{
						OFFSET -9.825497 2.506317 -1.597400
						CHANNELS 3 Xrotation Yrotation Zrotation
						JOINT RightForeArm
						{
							OFFSET -21.966242 0.000000 0.000000
							CHANNELS 3 Xrotation Yrotation Zrotation
							JOINT RightHand
							{
								OFFSET -33.879032 0.000000 0.000000
								CHANNELS 3 Xrotation Yrotation Zrotation
								JOINT RightHandThumb1
								{
									OFFSET -6.715286 -2.359680 3.363841
									CHANNELS 3 Xrotation Yrotation Zrotation
									JOINT RightHandThumb2
									{
										OFFSET -2.507072 -1.447464 1.447461
										CHANNELS 3 Xrotation Yrotation Zrotation
										JOINT RightHandThumb3
										{
											OFFSET -2.898338 -1.673355 1.673357
											CHANNELS 3 Xrotation Yrotation Zrotation
											End Site
											{
												OFFSET 0.295959 3.727692 -0.131651
											}
										}
									}
								}
								JOINT RightHandIndex1
								{
									OFFSET -14.190811 -0.254547 3.840278
									CHANNELS 3 Xrotation Yrotation Zrotation
									JOINT RightHandIndex2
									{
										OFFSET -3.551727 0.000000 -0.000000
										CHANNELS 3 Xrotation Yrotation Zrotation
										JOINT RightHandIndex3
										{
											OFFSET -2.894196 0.000000 0.000000
											CHANNELS 3 Xrotation Yrotation Zrotation
											End Site
											{
												OFFSET 1.000603 2.690872 0.366626
											}
										}
									}
								}
								JOINT RightHandMiddle1
								{
									OFFSET -13.776489 0.000000 0.000000
									CHANNELS 3 Xrotation Yrotation Zrotation
									JOINT RightHandMiddle2
									{
										OFFSET -3.438232 0.000000 0.000000
										CHANNELS 3 Xrotation Yrotation Zrotation
										JOINT RightHandMiddle3
										{
											OFFSET -3.691551 0.000000 0.000000
											CHANNELS 3 Xrotation Yrotation Zrotation
											End Site
											{
												OFFSET 1.082298 3.499527 0.457670
											}
										}
									}
								}
								JOINT RightHandRing1
								{
									OFFSET -13.966164 -0.268127 -3.067488
									CHANNELS 3 Xrotation Yrotation Zrotation
									JOINT RightHandRing2
									{
										OFFSET -3.162567 0.000000 0.000000
										CHANNELS 3 Xrotation Yrotation Zrotation
										JOINT RightHandRing3
										{
											OFFSET -3.324348 0.000000 0.000000
											CHANNELS 3 Xrotation Yrotation Zrotation
											End Site
											{
												OFFSET 0.861900 3.184998 0.405154
											}
										}
									}
								}
								JOINT RightHandPinky1
								{
									OFFSET -13.131393 -0.168503 -5.746925
									CHANNELS 3 Xrotation Yrotation Zrotation
									JOINT RightHandPinky2
									{
										OFFSET -2.849182 0.000000 0.000000
										CHANNELS 3 Xrotation Yrotation Zrotation
										JOINT RightHandPinky3
										{
											OFFSET -2.805038 0.000000 0.000000
											CHANNELS 3 Xrotation Yrotation Zrotation
											End Site
											{
												OFFSET 0.882500 2.642609 0.325652
											}
										}
									}
								}
							}
							JOINT Right_Sleeve
							{
								OFFSET -6.592125 -0.646545 0.805568
								CHANNELS 3 Xrotation Yrotation Zrotation
								End Site
								{
									OFFSET 0.000179 20.275787 -0.000000
								}
							}
						}
					}
				}
				JOINT Bind_Right_JacketString
				{
					OFFSET -3.534800 11.969597 7.200700
					CHANNELS 3 Xrotation Yrotation Zrotation
					JOINT Bind_Right_JacketString1
					{
						OFFSET -0.319900 -6.102600 2.794100
						CHANNELS 3 Xrotation Yrotation Zrotation
						End Site
						{
							OFFSET 0.000000 6.719452 0.000000
						}
					}
				}
				JOINT Bind_Left_JacketString
				{
					OFFSET 2.904800 11.969597 7.200700
					CHANNELS 3 Xrotation Yrotation Zrotation
					JOINT Bind_Left_JacketString1
					{
						OFFSET 0.364800 -5.904503 3.186800
						CHANNELS 3 Xrotation Yrotation Zrotation
						End Site
						{
							OFFSET 0.000000 6.719513 0.000000
						}
					}
				}
				JOINT HairE
				{
					OFFSET 5.915200 17.612701 -11.592200
					CHANNELS 3 Xrotation Yrotation Zrotation
					JOINT HairE1
					{
						OFFSET 0.289200 -7.171898 -1.284500
						CHANNELS 3 Xrotation Yrotation Zrotation
						End Site
						{
							OFFSET 0.000000 7.291756 0.000000
						}
					}
				}
				JOINT HairF
				{
					OFFSET -0.864800 17.612701 -11.592200
					CHANNELS 3 Xrotation Yrotation Zrotation
					JOINT HairF1
					{
						OFFSET 0.000000 -14.087097 -2.127501
						CHANNELS 3 Xrotation Yrotation Zrotation
						End Site
						{
							OFFSET 0.000000 14.246841 0.000000
						}
					}
				}
				JOINT HairG
				{
					OFFSET -8.087700 17.612701 -11.592200
					CHANNELS 3 Xrotation Yrotation Zrotation
					JOINT HairG1
					{
						OFFSET -0.293600 -6.081398 -0.910100
						CHANNELS 3 Xrotation Yrotation Zrotation
						End Site
						{
							OFFSET 0.000000 6.156120 0.000000
						}
					}
				}
			}
		}
	}
	JOINT Pouch
	{
		OFFSET 0.000000 4.394501 10.847300
		CHANNELS 3 Xrotation Yrotation Zrotation
		End Site
		{
			OFFSET 0.000000 21.880577 0.000000
		}
	}
	JOINT Bag
	{
		OFFSET -13.229000 4.813004 -0.593300
		CHANNELS 3 Xrotation Yrotation Zrotation
		End Site
		{
			OFFSET 0.000000 21.880577 0.000000
		}
	}
	JOINT OccupyGuyFacialAnim_Joint
	{
		OFFSET 1.000000 -70.206398 -1.655000
		CHANNELS 3 Xrotation Yrotation Zrotation
		End Site
		{
			OFFSET 0.000000 21.880577 0.000000
		}
	}
}
MOTION
Frames: 4
Frame Time: 0.033333
4.942928 68.825134 0.527813 -8.015521 -7.155861 -7.890619 -0.000000 0.000000 0.000000 -2.991601 9.418156 15.527899 30.265149 2.632296 7.539174 -20.677582 3.227110 -14.750658 -0.000000 0.000000 -0.000000 -0.000000 0.000000 -0.000000 -0.623457 -6.589039 4.591509 26.554789 1.120280 4.829665 -16.922695 3.169361 -3.702303 -0.000000 -0.000000 0.000000 0.000000 -0.000000 -0.000000 -2.220532 -2.250870 -3.072039 -0.758667 -1.346467 0.982996 -0.751270 -1.202520 0.933391 -0.100267 -2.066574 1.348492 -2.081114 -6.455192 -0.516101 -0.000000 -0.000000 -0.000000 -0.000000 -0.000000 -0.000000 -0.000000 -0.000000 0.000001 -0.000000 -0.000000 0.000000 -0.000000 0.000001 0.000001 -0.000000 -0.000000 0.000000 -0.000000 0.000001 0.000001 -0.000000 -0.000000 -0.000000 -0.000000 -0.000000 -0.000000 -0.122984 -9.197405 -16.309489 -38.990620 16.823955 -36.252773 0.000230 -98.353242 0.000185 -17.057651 -0.902066 27.810271 -14.632992 -9.253132 17.704926 7.230347 21.960026 2.178849 -0.000004 0.000002 0.000000 3.678150 -1.103631 -38.980183 0.639478 2.663438 -26.997306 0.000003 0.000004 -0.000001 1.698915 6.413618 -43.828320 0.666398 2.715581 -27.571235 0.000004 -0.000003 0.000000 3.964797 8.604852 -45.767732 0.666571 2.715894 -27.574631 -0.000001 -0.000001 0.000004 0.629556 18.830352 -49.228954 1.245825 3.613165 -38.038457 -0.000003 -0.000002 0.000003 0.000000 0.000002 -0.000002 5.512611 -7.989907 7.970581 12.005674 1.490619 62.585297 0.000001 17.015031 -0.000008 1.028877 -3.148231 24.049801 -6.901945 8.181167 -4.018424 7.464511 -23.792677 -2.837987 -0.000001 -0.000001 0.000001 -1.062414 3.417739 39.672075 1.026084 -2.918185 38.738275 -0.000002 0.000000 0.000004 2.249925 -6.234125 58.129445 2.592703 -4.175488 63.661038 0.000001 -0.000000 0.000001 7.757832 -8.854079 64.776216 3.923687 -4.599185 80.928535 0.000001 -0.000000 0.000002 6.599595 -19.242270 68.918371 4.097755 -4.623528 83.093411 0.000002 0.000000 -0.000005 -0.000002 -0.000001 -0.000000 -0.000000 -0.000001 -0.000000 -0.000000 0.000000 -0.000000 -0.000000 -0.000001 -0.000000 -0.000000 -0.000001 -0.000000 -0.000000 -0.000001 -0.000000 -0.000000 0.000000 -0.000000 -0.000000 -0.000001 -0.000000 -0.000000 -0.000001 -0.000000 -0.000000 -0.000001 -0.000000 -0.000000 0.000000 -0.000000 -0.000000 0.000000 0.000000 -0.000000 0.000000 0.000000 -0.000000 0.000000 0.000000 
4.774964 68.838692 0.350860 -7.602568 -6.274558 -7.660041 0.000000 0.000000 0.000001 -3.816767 9.350750 15.798668 30.154944 2.488179 7.513778 -20.424485 2.268921 -14.921061 -0.000000 0.000000 0.000000 0.000000 0.000000 -0.000000 -0.957019 -6.582589 4.829137 26.325339 1.034255 4.791098 -16.883176 2.279976 -3.872875 0.000000 0.000001 -0.000000 -0.000001 0.000001 -0.000000 -2.033762 -2.204772 -2.949750 -0.643185 -1.292551 1.029357 -0.635430 -1.150380 0.980989 0.103205 -2.272853 1.584922 -2.708999 -7.025708 -0.632222 -0.000000 0.000001 -0.000000 -0.000000 0.000001 -0.000000 -0.000000 0.000001 -0.000000 -0.000000 0.000001 -0.000000 0.000000 0.000001 0.000001 -0.000000 0.000001 -0.000000 0.000000 0.000001 0.000001 -0.000000 0.000001 -0.000000 -0.000000 0.000001 -0.000000 -0.145500 -8.984842 -16.515245 -33.236158 18.197391 -35.298339 0.001218 -95.415072 0.001256 -15.526753 1.282725 26.096478 -14.632980 -9.253134 17.704945 7.230341 21.960025 2.178852 -0.000001 -0.000000 -0.000001 3.678158 -1.103631 -38.980159 0.639462 2.663427 -26.997323 0.000002 0.000001 -0.000002 1.698896 6.413626 -43.828299 0.666412 2.715587 -27.571244 0.000000 -0.000000 0.000008 3.964786 8.604861 -45.767687 0.666576 2.715892 -27.574637 -0.000003 0.000002 -0.000003 0.629544 18.830348 -49.228927 1.245839 3.613162 -38.038474 0.000000 -0.000001 -0.000004 0.000003 0.000001 0.000001 5.456162 -7.699257 7.744295 11.994406 2.506398 63.037100 0.000002 18.704282 -0.000008 0.022016 -2.766247 23.600206 -6.901944 8.181164 -4.018424 7.464511 -23.792677 -2.837990 -0.000000 -0.000001 0.000000 -1.062413 3.417736 39.672044 1.026089 -2.918184 38.738272 0.000002 -0.000000 -0.000002 2.249923 -6.234123 58.129418 2.592704 -4.175492 63.661038 0.000001 0.000000 0.000001 7.757835 -8.854082 64.776216 3.923682 -4.599183 80.928500 -0.000000 -0.000000 0.000005 6.599593 -19.242272 68.918391 4.097752 -4.623532 83.093445 -0.000000 -0.000000 0.000004 0.000000 -0.000000 0.000000 -0.000000 -0.000001 -0.000000 -0.000001 -0.000001 -0.000001 -0.000000 -0.000001 -0.000000 -0.000000 -0.000001 -0.000000 -0.000000 -0.000001 -0.000000 -0.000001 -0.000001 -0.000000 -0.000000 -0.000001 -0.000000 -0.000000 -0.000001 -0.000000 -0.000000 -0.000001 -0.000000 -0.000001 -0.000001 -0.000000 0.000000 0.000000 0.000001 0.000000 0.000000 0.000001 0.000000 0.000000 0.000001 
4.556883 68.847443 0.189911 -7.267255 -5.446469 -7.519118 -0.000000 -0.000000 -0.000000 -4.544102 9.314460 16.182846 29.996429 2.334367 7.464032 -20.099117 1.361221 -15.124433 -0.000000 0.000000 0.000000 0.000000 0.000000 -0.000001 -1.209470 -6.503400 5.184979 26.105193 0.925898 4.748751 -16.860593 1.373959 -4.053770 0.000000 -0.000000 0.000000 0.000001 0.000001 -0.000001 -1.799016 -2.169518 -2.799047 -0.493083 -1.246982 1.087170 -0.485338 -1.106686 1.039774 0.272014 -2.434981 1.781316 -3.319955 -7.479733 -0.681423 -0.000000 -0.000001 0.000000 -0.000000 -0.000001 0.000000 -0.000000 -0.000001 0.000001 -0.000000 -0.000001 0.000001 0.000000 -0.000001 -0.000000 -0.000000 -0.000001 0.000001 0.000000 -0.000001 -0.000000 -0.000000 -0.000001 0.000000 -0.000000 -0.000001 0.000000 -0.163597 -8.919642 -16.666495 -27.802191 19.170359 -35.175556 -0.006007 -91.674382 -0.006034 -14.073313 3.330054 23.840002 -14.493364 -9.184499 17.487612 7.230343 21.960021 2.178850 0.000003 -0.000000 -0.000002 3.564356 -1.129504 -38.579077 0.632256 2.649205 -26.841493 0.000001 -0.000001 -0.000000 1.670616 6.384118 -43.427511 0.658596 2.700572 -27.405743 -0.000001 0.000000 -0.000001 3.968747 8.638127 -45.365963 0.658770 2.700933 -27.409515 0.000000 0.000001 -0.000001 0.689034 18.779031 -48.827110 1.236440 3.601152 -37.889204 0.000002 -0.000001 0.000003 0.000003 -0.000001 -0.000003 5.406313 -7.452849 7.534718 11.739596 3.806968 63.371991 -0.000001 20.227264 0.000000 -0.585942 -2.365767 23.334959 -6.901942 8.181168 -4.018425 7.464513 -23.792682 -2.837986 -0.000000 -0.000001 0.000001 -1.062410 3.417735 39.672058 1.026084 -2.918180 38.738275 0.000003 -0.000000 0.000004 2.249927 -6.234127 58.129438 2.592702 -4.175494 63.661058 0.000000 -0.000001 -0.000001 7.757838 -8.854084 64.776244 3.923682 -4.599181 80.928521 0.000001 0.000000 -0.000003 6.599601 -19.242267 68.918405 4.097753 -4.623532 83.093424 -0.000001 -0.000000 0.000000 -0.000000 -0.000001 -0.000000 -0.000001 0.000000 0.000000 -0.000002 -0.000001 -0.000000 -0.000001 0.000000 -0.000000 -0.000001 0.000000 -0.000000 -0.000001 0.000000 0.000000 -0.000002 -0.000001 -0.000000 -0.000001 0.000000 -0.000000 -0.000001 0.000000 -0.000000 -0.000001 0.000000 0.000000 -0.000002 -0.000001 -0.000000 -0.000000 -0.000000 -0.000000 -0.000000 -0.000000 -0.000000 -0.000000 -0.000000 -0.000000 
4.306311 68.870239 0.075018 -7.011483 -4.779635 -7.388321 -0.000000 -0.000000 -0.000000 -5.003934 9.346958 16.525306 29.621311 2.215155 7.417719 -19.724287 0.569177 -15.359057 -0.000000 -0.000000 -0.000000 -0.000001 0.000000 0.000000 -1.342486 -6.380444 5.542932 25.823296 0.794332 4.713806 -16.769564 0.624389 -4.324434 -0.000000 0.000000 0.000000 -0.000001 -0.000001 -0.000001 -1.540609 -2.128309 -2.655269 -0.326766 -1.200016 1.142919 -0.319049 -1.061552 1.096509 0.428572 -2.570956 1.986880 -3.841893 -7.821407 -0.680857 -0.000001 -0.000001 -0.000000 -0.000001 -0.000001 -0.000000 -0.000001 -0.000001 -0.000000 -0.000001 -0.000001 -0.000000 -0.000000 -0.000001 -0.000000 -0.000001 -0.000001 -0.000000 -0.000000 -0.000001 -0.000000 -0.000001 -0.000001 -0.000000 -0.000001 -0.000001 -0.000000 -0.181996 -8.924581 -16.812155 -22.716567 19.601917 -35.506834 0.000963 -87.287857 0.001065 -13.128072 5.348347 20.927479 -12.998815 -8.489258 15.175355 7.230345 21.960020 2.178849 -0.000000 -0.000000 -0.000002 2.383607 -1.486484 -34.331891 0.558078 2.497412 -25.189680 0.000002 0.000000 -0.000000 1.383785 6.059592 -39.180038 0.578368 2.540041 -25.651219 0.000001 -0.000000 0.000001 3.961856 8.998393 -41.096657 0.578698 2.540777 -25.658856 0.000001 0.000000 0.000003 1.333289 18.297737 -44.566189 1.138811 3.472291 -36.306680 -0.000000 0.000000 -0.000002 0.000003 -0.000002 -0.000001 5.364616 -7.147363 7.401050 11.483656 5.171792 63.528279 0.000003 21.720895 -0.000021 -1.043101 -1.841869 23.169147 -6.901945 8.181168 -4.018424 7.464510 -23.792681 -2.837988 -0.000000 -0.000001 0.000001 -1.062413 3.417734 39.672068 1.026089 -2.918186 38.738292 -0.000000 0.000000 0.000004 2.249926 -6.234124 58.129438 2.592705 -4.175489 63.661051 0.000001 -0.000001 -0.000001 7.757836 -8.854084 64.776223 3.923682 -4.599182 80.928500 0.000001 -0.000000 0.000002 6.599595 -19.242265 68.918378 4.097754 -4.623531 83.093390 -0.000001 0.000000 0.000001 -0.000000 -0.000000 -0.000001 0.000000 -0.000000 0.000000 0.000000 -0.000001 -0.000001 0.000000 -0.000000 0.000001 0.000000 -0.000000 0.000001 0.000000 -0.000000 0.000000 0.000000 -0.000001 -0.000000 0.000000 -0.000000 0.000001 0.000000 -0.000000 0.000001 0.000000 -0.000000 0.000000 0.000000 -0.000001 -0.000000 -0.000000 -0.000000 -0.000000 -0.000000 -0.000000 -0.000000 -0.000000 -0.000000 -0.000000 
